PathFileType	4	(X/Y/Z)	E:/New_biomech_experiments/27_06_2024_Shreyas_Arm26_updated ground/Afternoon session/Neeraj_PP_27_6_24_elbow_flexion_t01.trc										
DataRate	CameraRate	NumFrames	NumMarkers	Units	OrigDataRate	OrigDataStartFrame	OrigNumFrames						
120	120	100	4	m	120	5709	6524						
Frame#	Time	r_acromion			r_humerus_epicondyle			r_radius_styloid			RHAND		
		X1	Y1	Z1	X2	Y2	Z2	X3	Y3	Z3	X4	Y4	Z4
													
5709	47.567	-0.01138	0.87641	0.23374	-0.02073	0.53168	0.25526	0.09172	0.27143	0.28309	0.13335	0.18862	0.24678
5710	47.575	-0.01143	0.87641	0.23375	-0.02065	0.53171	0.25521	0.09122	0.27122	0.28313	0.13268	0.1883	0.24685
5711	47.583	-0.01148	0.87641	0.23375	-0.02058	0.53173	0.25517	0.0907	0.271	0.28317	0.13201	0.18798	0.24694
5712	47.592	-0.01155	0.87643	0.23375	-0.0205	0.53176	0.25513	0.09017	0.27078	0.28323	0.13136	0.18767	0.24703
5713	47.6	-0.01161	0.87645	0.23375	-0.02042	0.53178	0.2551	0.08963	0.27056	0.28329	0.13071	0.18736	0.24715
5714	47.608	-0.01168	0.87647	0.23375	-0.02035	0.53181	0.25507	0.08909	0.27034	0.28335	0.13006	0.18705	0.24726
5715	47.617	-0.01174	0.87648	0.23376	-0.02028	0.53183	0.25504	0.08855	0.27012	0.28342	0.1294	0.18674	0.24738
5716	47.625	-0.01179	0.87648	0.23377	-0.02021	0.53186	0.25502	0.088	0.2699	0.2835	0.12872	0.18643	0.2475
5717	47.633	-0.01185	0.87647	0.23378	-0.02015	0.53189	0.255	0.08745	0.26968	0.28358	0.12802	0.18611	0.24761
5718	47.642	-0.01189	0.87647	0.23379	-0.0201	0.53192	0.25497	0.08689	0.26947	0.28367	0.12728	0.18578	0.24773
5719	47.65	-0.01195	0.87647	0.2338	-0.02005	0.53195	0.25496	0.08633	0.26926	0.28375	0.12648	0.18544	0.24783
5720	47.658	-0.012	0.87648	0.23381	-0.02	0.53199	0.25494	0.08576	0.26905	0.28383	0.12564	0.18509	0.24792
5721	47.667	-0.01205	0.87649	0.23381	-0.01996	0.53203	0.25492	0.08519	0.26884	0.2839	0.12484	0.18476	0.248
5722	47.675	-0.0121	0.87649	0.23382	-0.01993	0.53207	0.25491	0.08462	0.26864	0.28398	0.12402	0.18443	0.2481
5723	47.683	-0.01214	0.8765	0.23382	-0.01989	0.53211	0.2549	0.08405	0.26845	0.28405	0.12309	0.18405	0.24822
5724	47.692	-0.01219	0.8765	0.23383	-0.01986	0.53216	0.25489	0.08348	0.26826	0.28412	0.12212	0.18367	0.24835
5725	47.7	-0.01223	0.87651	0.23384	-0.01983	0.5322	0.25488	0.08291	0.26808	0.28419	0.1212	0.1833	0.24847
5726	47.708	-0.01227	0.87651	0.23385	-0.01981	0.53225	0.25487	0.08235	0.2679	0.28426	0.12032	0.18296	0.24858
5727	47.717	-0.01231	0.87651	0.23386	-0.01979	0.53229	0.25486	0.08179	0.26772	0.28434	0.11946	0.18263	0.24869
5728	47.725	-0.01236	0.87652	0.23386	-0.01976	0.53233	0.25484	0.08123	0.26755	0.28441	0.11862	0.18231	0.2488
5729	47.733	-0.01241	0.87655	0.23387	-0.01974	0.53237	0.25483	0.08067	0.26739	0.28449	0.1178	0.18201	0.2489
5730	47.742	-0.01247	0.87657	0.23387	-0.01971	0.53241	0.25482	0.08011	0.26722	0.28457	0.117	0.18173	0.24901
5731	47.75	-0.01251	0.87658	0.23388	-0.01968	0.53245	0.2548	0.07956	0.26706	0.28465	0.11621	0.18145	0.24911
5732	47.758	-0.01255	0.87658	0.23388	-0.01965	0.53249	0.25479	0.079	0.26689	0.28473	0.11544	0.18119	0.24923
5733	47.767	-0.01259	0.87657	0.23389	-0.01963	0.53253	0.25477	0.07846	0.26674	0.2848	0.11469	0.18093	0.24934
5734	47.775	-0.01264	0.87657	0.23389	-0.01961	0.53257	0.25476	0.07792	0.26658	0.28488	0.11394	0.18068	0.24945
5735	47.783	-0.01268	0.87658	0.23389	-0.0196	0.53261	0.25475	0.07739	0.26643	0.28496	0.11321	0.18043	0.24956
5736	47.792	-0.01273	0.87658	0.2339	-0.01959	0.53265	0.25474	0.07687	0.26629	0.28503	0.11249	0.18019	0.24968
5737	47.8	-0.01278	0.87659	0.2339	-0.0196	0.53268	0.25474	0.07636	0.26614	0.2851	0.11179	0.17995	0.24979
5738	47.808	-0.01283	0.8766	0.2339	-0.01962	0.53271	0.25473	0.07586	0.26601	0.28517	0.11111	0.17971	0.2499
5739	47.817	-0.01288	0.8766	0.23391	-0.01964	0.53274	0.25473	0.07537	0.26587	0.28524	0.11045	0.17948	0.25001
5740	47.825	-0.01294	0.87661	0.23391	-0.01966	0.53277	0.25473	0.07489	0.26574	0.28532	0.10981	0.17927	0.25012
5741	47.833	-0.013	0.87662	0.23391	-0.01968	0.5328	0.25473	0.07443	0.26561	0.28539	0.10919	0.17905	0.25023
5742	47.842	-0.01307	0.87662	0.23391	-0.01971	0.53283	0.25472	0.07397	0.26549	0.28546	0.10858	0.17885	0.25033
5743	47.85	-0.01315	0.87663	0.23391	-0.01974	0.53286	0.25472	0.07352	0.26537	0.28553	0.10798	0.17864	0.25043
5744	47.858	-0.01323	0.87664	0.23391	-0.01977	0.53288	0.25472	0.07309	0.26526	0.2856	0.10739	0.17845	0.25054
5745	47.867	-0.01331	0.87665	0.23392	-0.0198	0.53291	0.25472	0.07266	0.26515	0.28568	0.10682	0.17827	0.25064
5746	47.875	-0.01339	0.87666	0.23392	-0.01983	0.53294	0.25472	0.07225	0.26505	0.28575	0.10626	0.1781	0.25075
5747	47.883	-0.01348	0.87667	0.23392	-0.01985	0.53296	0.25472	0.07184	0.26496	0.28582	0.10572	0.17795	0.25085
5748	47.892	-0.01358	0.87669	0.23392	-0.01987	0.53299	0.25473	0.07143	0.26487	0.2859	0.10517	0.17781	0.25095
5749	47.9	-0.01367	0.8767	0.23393	-0.01988	0.53303	0.25473	0.07102	0.26478	0.28597	0.10463	0.17766	0.25105
5750	47.908	-0.01377	0.87672	0.23393	-0.01989	0.53306	0.25473	0.07062	0.26469	0.28604	0.10408	0.17752	0.25115
5751	47.917	-0.01387	0.87673	0.23393	-0.01989	0.53309	0.25472	0.07021	0.2646	0.28611	0.10352	0.17737	0.25125
5752	47.925	-0.01397	0.87675	0.23394	-0.01989	0.53313	0.25472	0.06981	0.26451	0.28619	0.10297	0.17721	0.25135
5753	47.933	-0.01406	0.87677	0.23394	-0.0199	0.53316	0.25472	0.0694	0.26443	0.28626	0.10242	0.17706	0.25145
5754	47.942	-0.01416	0.87678	0.23394	-0.01991	0.53319	0.25471	0.06899	0.26434	0.28633	0.10188	0.17691	0.25155
5755	47.95	-0.01424	0.8768	0.23395	-0.01994	0.53323	0.25471	0.06858	0.26426	0.2864	0.10135	0.17675	0.25165
5756	47.958	-0.01432	0.87681	0.23395	-0.01998	0.53326	0.25471	0.06817	0.26417	0.28646	0.10082	0.1766	0.25174
5757	47.967	-0.0144	0.87682	0.23395	-0.02003	0.53329	0.25471	0.06777	0.2641	0.28652	0.1003	0.17645	0.25182
5758	47.975	-0.01448	0.87684	0.23396	-0.02008	0.53332	0.25471	0.06738	0.26402	0.28658	0.09977	0.17629	0.2519
5759	47.983	-0.01456	0.87685	0.23396	-0.02013	0.53335	0.25471	0.06699	0.26395	0.28663	0.09925	0.17614	0.25197
5760	47.992	-0.01464	0.87686	0.23396	-0.02019	0.53338	0.2547	0.06661	0.26387	0.28669	0.09874	0.17599	0.25204
5761	48	-0.01472	0.87688	0.23397	-0.02026	0.53341	0.2547	0.06623	0.2638	0.28673	0.09824	0.17584	0.25211
5762	48.008	-0.01479	0.87689	0.23398	-0.02033	0.53344	0.2547	0.06586	0.26372	0.28678	0.09775	0.17571	0.25218
5763	48.017	-0.01487	0.8769	0.23398	-0.02041	0.53346	0.25469	0.0655	0.26365	0.28682	0.09728	0.17559	0.25225
5764	48.025	-0.01494	0.87691	0.23399	-0.02049	0.53349	0.25468	0.06514	0.26357	0.28685	0.09682	0.17547	0.25231
5765	48.033	-0.01502	0.87692	0.234	-0.02057	0.53352	0.25466	0.06478	0.2635	0.28688	0.09638	0.17536	0.25238
5766	48.042	-0.01509	0.87693	0.234	-0.02065	0.53354	0.25464	0.06443	0.26343	0.28691	0.09594	0.17526	0.25243
5767	48.05	-0.01517	0.87695	0.23401	-0.02073	0.53357	0.25462	0.06409	0.26336	0.28692	0.09552	0.17516	0.25247
5768	48.058	-0.01524	0.87696	0.23402	-0.0208	0.53359	0.2546	0.06376	0.26329	0.28693	0.09511	0.17506	0.2525
5769	48.067	-0.01533	0.87697	0.23403	-0.02086	0.53361	0.25457	0.06344	0.26322	0.28692	0.09469	0.17495	0.25251
5770	48.075	-0.01541	0.87698	0.23404	-0.02091	0.53364	0.25455	0.06313	0.26315	0.28692	0.09428	0.17485	0.25251
5771	48.083	-0.0155	0.87699	0.23405	-0.02096	0.53366	0.25452	0.06282	0.26308	0.2869	0.09387	0.17474	0.25249
5772	48.092	-0.01558	0.87701	0.23407	-0.02099	0.53368	0.25448	0.06252	0.26301	0.28687	0.09347	0.17463	0.25247
5773	48.1	-0.01567	0.87702	0.23408	-0.02102	0.5337	0.25445	0.06223	0.26295	0.28685	0.09307	0.17453	0.25243
5774	48.108	-0.01575	0.87704	0.23409	-0.02104	0.53372	0.25441	0.06194	0.26288	0.28681	0.09268	0.17443	0.25238
5775	48.117	-0.01583	0.87706	0.23411	-0.02105	0.53375	0.25438	0.06166	0.26281	0.28677	0.09231	0.17433	0.25232
5776	48.125	-0.01591	0.87709	0.23412	-0.02106	0.53377	0.25434	0.06139	0.26275	0.28673	0.09194	0.17423	0.25226
5777	48.133	-0.01598	0.87711	0.23414	-0.02107	0.53379	0.2543	0.06114	0.26269	0.28668	0.09159	0.17413	0.2522
5778	48.142	-0.01606	0.87714	0.23416	-0.02108	0.53381	0.25426	0.06089	0.26263	0.28663	0.09125	0.17404	0.25213
5779	48.15	-0.01613	0.87716	0.23418	-0.02108	0.53384	0.25422	0.06066	0.26258	0.28657	0.09093	0.17396	0.25205
5780	48.158	-0.01619	0.8772	0.2342	-0.02109	0.53386	0.25418	0.06044	0.26252	0.2865	0.09063	0.17388	0.25197
5781	48.167	-0.01626	0.87723	0.23422	-0.02109	0.53389	0.25414	0.06023	0.26247	0.28643	0.09034	0.1738	0.25188
5782	48.175	-0.01632	0.87728	0.23424	-0.02109	0.53392	0.2541	0.06004	0.26243	0.28635	0.09006	0.17373	0.25178
5783	48.183	-0.01638	0.87733	0.23426	-0.02108	0.53395	0.25406	0.05985	0.26239	0.28626	0.08978	0.17366	0.25166
5784	48.192	-0.01644	0.87739	0.23428	-0.02107	0.53399	0.25402	0.05966	0.26236	0.28617	0.08951	0.17359	0.25154
5785	48.2	-0.0165	0.87746	0.2343	-0.02106	0.53403	0.25398	0.05948	0.26233	0.28608	0.08924	0.17352	0.25141
5786	48.208	-0.01656	0.87754	0.23432	-0.02104	0.53408	0.25393	0.05931	0.26231	0.28598	0.08897	0.17346	0.25127
5787	48.217	-0.01663	0.87763	0.23433	-0.02102	0.53414	0.25389	0.05914	0.26229	0.28587	0.08871	0.1734	0.25113
5788	48.225	-0.01669	0.87774	0.23434	-0.02099	0.53419	0.25384	0.05896	0.26227	0.28576	0.08845	0.17336	0.25099
5789	48.233	-0.01677	0.87786	0.23435	-0.02096	0.53425	0.2538	0.05879	0.26226	0.28565	0.08819	0.17331	0.25084
5790	48.242	-0.01685	0.87799	0.23435	-0.02092	0.53431	0.25376	0.05862	0.26224	0.28554	0.08793	0.17326	0.25069
5791	48.25	-0.01694	0.87814	0.23434	-0.02088	0.53437	0.25371	0.05846	0.26221	0.28543	0.08766	0.17321	0.25053
5792	48.258	-0.01701	0.87828	0.23434	-0.02085	0.53443	0.25367	0.05829	0.26219	0.28532	0.08739	0.17316	0.25037
5793	48.267	-0.01708	0.87839	0.23435	-0.02081	0.53448	0.25363	0.05812	0.26216	0.28521	0.08712	0.1731	0.25023
5794	48.275	-0.01712	0.87848	0.23436	-0.02078	0.53453	0.25359	0.05794	0.26213	0.28511	0.08685	0.17304	0.25008
5795	48.283	-0.01716	0.87856	0.23438	-0.02076	0.53458	0.25356	0.05776	0.26209	0.285	0.08659	0.17299	0.24995
5796	48.292	-0.0172	0.87863	0.23441	-0.02074	0.53463	0.25352	0.05757	0.26206	0.2849	0.08633	0.17294	0.24983
5797	48.3	-0.01723	0.87869	0.23444	-0.02073	0.53468	0.25349	0.05738	0.26202	0.2848	0.08607	0.1729	0.24972
5798	48.308	-0.01725	0.87875	0.23447	-0.02072	0.53473	0.25345	0.05719	0.26199	0.28471	0.08582	0.17286	0.24961
5799	48.317	-0.01727	0.8788	0.2345	-0.02072	0.53479	0.25342	0.05699	0.26196	0.28462	0.08556	0.17281	0.24951
5800	48.325	-0.01729	0.87885	0.23454	-0.02073	0.53484	0.25339	0.0568	0.26193	0.28453	0.0853	0.17278	0.24941
5801	48.333	-0.01733	0.87893	0.23456	-0.02075	0.5349	0.25336	0.05661	0.26191	0.28445	0.08505	0.17274	0.24932
5802	48.342	-0.01738	0.87902	0.23459	-0.02078	0.53496	0.25333	0.05642	0.26189	0.28437	0.08479	0.17271	0.24924
5803	48.35	-0.01742	0.8791	0.23462	-0.02081	0.53502	0.25331	0.05624	0.26188	0.28429	0.08454	0.17267	0.24916
5804	48.358	-0.01746	0.87917	0.23466	-0.02084	0.53508	0.25328	0.05606	0.26187	0.28422	0.08429	0.17265	0.24908
5805	48.367	-0.0175	0.87924	0.2347	-0.02087	0.53515	0.25326	0.05589	0.26186	0.28415	0.08404	0.17262	0.249
5806	48.375	-0.01753	0.87929	0.23475	-0.02091	0.53521	0.25325	0.05572	0.26185	0.28409	0.08379	0.1726	0.24892
5807	48.383	-0.01756	0.87933	0.23481	-0.02094	0.53527	0.25324	0.05555	0.26185	0.28403	0.08355	0.17257	0.24884
5808	48.392	-0.01758	0.87937	0.23487	-0.02097	0.53534	0.25323	0.05539	0.26185	0.28397	0.08331	0.17255	0.24876
